<?xml version="1.0" encoding="UTF-8"?>
<svg width="19px" height="19px" viewBox="0 0 19 19" version="1.1" xmlns="http://www.w3.org/2000/svg" xmlns:xlink="http://www.w3.org/1999/xlink">
    <!-- Generator: sketchtool 58 (101010) - https://sketch.com -->
    <title>D98F605D-4E3C-490A-BF3F-44CC4CC1903E</title>
    <desc>Created with sketchtool.</desc>
    <g id="Page-2" stroke="none" stroke-width="1" fill="none" fill-rule="evenodd">
        <g id="partner" transform="translate(-216.000000, -960.000000)" fill="#464646" fill-rule="nonzero">
            <g id="linkedin" transform="translate(216.000000, 960.000000)">
                <rect id="Rectangle" x="0" y="6" width="4" height="13"></rect>
                <path d="M15.8374545,6.15245455 C15.7925455,6.13827273 15.75,6.12290909 15.7027273,6.10990909 C15.646,6.09690909 15.5892727,6.08627273 15.5313636,6.07681818 C15.3068182,6.03190909 15.061,6 14.7726364,6 C12.3073636,6 10.7438182,7.79281818 10.2285455,8.48536364 L10.2285455,6 L6,6 L6,19 L10.2285455,19 L10.2285455,11.9090909 C10.2285455,11.9090909 13.4241818,7.45836364 14.7726364,10.7272727 C14.7726364,13.6451818 14.7726364,19 14.7726364,19 L19,19 L19,10.2273636 C19,8.26318182 17.6539091,6.62636364 15.8374545,6.15245455 Z" id="Path"></path>
                <circle id="Oval" cx="2" cy="2" r="2"></circle>
            </g>
        </g>
    </g>
</svg>