<svg width="23" height="21" viewBox="0 0 23 21" fill="none" xmlns="http://www.w3.org/2000/svg">
<path d="M21.9599 15.6814C18.9653 15.1886 17.6157 12.1212 17.5611 11.991C17.5569 11.9826 17.5541 11.9742 17.5485 11.9658C17.3959 11.655 17.3595 11.3988 17.4435 11.2042C17.6073 10.8206 18.2345 10.6218 18.6489 10.4902C18.7693 10.4524 18.8827 10.416 18.9765 10.3796C19.3853 10.2186 19.6765 10.0436 19.8697 9.8462C20.0993 9.6096 20.1441 9.3828 20.1413 9.2358C20.1343 8.8774 19.8599 8.5582 19.4217 8.4028C19.2747 8.3426 19.1053 8.3104 18.9345 8.3104C18.8183 8.3104 18.6447 8.3258 18.4809 8.4028C18.1309 8.5666 17.8173 8.6562 17.5471 8.6688C17.4043 8.6618 17.3035 8.631 17.2377 8.6016C17.2461 8.4616 17.2545 8.3174 17.2643 8.169L17.2685 8.1046C17.3651 6.5884 17.4841 4.7026 16.9829 3.5826C16.6399 2.8154 16.1793 2.156 15.6123 1.6212C15.1377 1.1732 14.5861 0.8092 13.9729 0.5404C12.9075 0.07 11.9135 0 11.4151 0H11.4137C11.3941 0 11.3759 0 11.3591 0C11.2205 0.0014 10.9951 0.00419999 10.9741 0.00419999C10.4771 0.00419999 9.48168 0.0742 8.41348 0.5446C7.80168 0.8134 7.25288 1.176 6.77968 1.624C6.21548 2.1588 5.75628 2.8168 5.41468 3.5812C4.91348 4.6998 5.03248 6.5856 5.12768 8.1004V8.1032C5.13748 8.2656 5.14868 8.435 5.15848 8.6002C5.08568 8.6324 4.96668 8.6688 4.79168 8.6688C4.50888 8.6688 4.17288 8.5792 3.79348 8.4014C3.68148 8.3496 3.55408 8.323 3.41408 8.323C3.18868 8.323 2.94928 8.3888 2.74348 8.5106C2.48308 8.6632 2.31508 8.8774 2.26888 9.1168C2.23948 9.2736 2.24088 9.5858 2.58808 9.9022C2.77988 10.0758 3.05988 10.2368 3.42248 10.3796C3.51768 10.4174 3.63108 10.4524 3.75008 10.4902C4.16448 10.6218 4.79308 10.8206 4.95688 11.2042C5.03948 11.3988 5.00308 11.655 4.85048 11.9658C4.84628 11.9742 4.84208 11.9826 4.83928 11.991C4.80008 12.0806 4.44308 12.8856 3.71088 13.7354C3.29508 14.2184 2.83728 14.623 2.35008 14.9366C1.75508 15.3202 1.11248 15.5694 0.439077 15.68C0.174477 15.7234 -0.0145228 15.9586 0.000877217 16.226C0.00507722 16.303 0.0232772 16.38 0.0554772 16.4542V16.4556C0.163277 16.7062 0.411077 16.9176 0.814277 17.1038C1.30708 17.332 2.04348 17.5238 3.00528 17.6736C3.05428 17.766 3.10468 17.997 3.13968 18.1552C3.17608 18.3232 3.21388 18.4968 3.26848 18.6802C3.32728 18.879 3.47848 19.117 3.86908 19.117C4.01748 19.117 4.18688 19.0834 4.38428 19.0456C4.67268 18.9896 5.06748 18.9126 5.55888 18.9126C5.83188 18.9126 6.11468 18.9364 6.39888 18.984C6.94768 19.075 7.42088 19.4082 7.96828 19.7946C8.76908 20.3602 9.67628 21 11.0623 21C11.1001 21 11.1379 20.9986 11.1757 20.9958C11.2205 20.9986 11.2779 21 11.3367 21C12.7227 21 13.6299 20.3602 14.4307 19.796L14.4321 19.7946C14.9795 19.4096 15.4527 19.0764 16.0015 18.9854C16.2857 18.9378 16.5685 18.914 16.8415 18.914C17.3119 18.914 17.6843 18.9742 18.0161 19.0386C18.2331 19.0806 18.4011 19.1016 18.5313 19.1016H18.5439H18.5565C18.8421 19.1016 19.0521 18.9448 19.1319 18.6718C19.1851 18.4912 19.2229 18.3232 19.2607 18.151C19.2929 18.0026 19.3461 17.7646 19.3937 17.6722C20.3555 17.521 21.0919 17.3306 21.5847 17.1024C21.9865 16.9162 22.2343 16.7048 22.3421 16.4556C22.3743 16.3814 22.3939 16.3044 22.3981 16.2246C22.4135 15.96 22.2245 15.7234 21.9599 15.6814Z" fill="#464646"/>
</svg>
