<?xml version="1.0" encoding="UTF-8"?>
<svg width="23px" height="19px" viewBox="0 0 23 19" version="1.1" xmlns="http://www.w3.org/2000/svg" xmlns:xlink="http://www.w3.org/1999/xlink">
    <!-- Generator: sketchtool 58 (101010) - https://sketch.com -->
    <title>4D607C91-5C5A-4D8E-A0BF-DFFAAC3A54F0</title>
    <desc>Created with sketchtool.</desc>
    <g id="Page-2" stroke="none" stroke-width="1" fill="none" fill-rule="evenodd">
        <g id="partner" transform="translate(-258.000000, -961.000000)">
            <g id="Twitter_Logo_Blue" transform="translate(252.000000, 953.000000)">
                <rect id="Rectangle" x="0" y="0" width="34" height="34"></rect>
                <path d="M13.4423156,26.4444444 C21.6394133,26.4444444 26.12288,19.5401424 26.12288,13.5527628 C26.12288,13.356658 26.12288,13.1614365 26.1098467,12.9670985 C26.9820646,12.325704 27.7349778,11.5315402 28.3333333,10.6217912 C27.5199482,10.9882083 26.6570983,11.2285046 25.7735867,11.3346586 C26.7039442,10.7684122 27.400254,9.8778049 27.7329311,8.82858067 C26.8580968,9.35634576 25.9010058,9.72828828 24.90296,9.92835755 C23.5214986,8.43495267 21.3263695,8.06943657 19.548475,9.0367697 C17.7705806,10.0041028 16.8520745,12.0637141 17.3080022,14.0606919 C13.7246139,13.8780578 10.3859778,12.1573476 8.12297778,9.32679285 C6.94009222,11.3970629 7.54428725,14.0455507 9.50277333,15.375124 C8.79353513,15.3537534 8.09976052,15.1592437 7.48,14.8080101 C7.48,14.8265606 7.48,14.8459944 7.48,14.8654282 C7.48058053,17.0222213 8.97601074,18.8798657 11.0554778,19.3069367 C10.3993534,19.4888549 9.71094224,19.5154476 9.04313111,19.3846719 C9.6269792,21.2303739 11.3001348,22.4947737 13.2068467,22.5311822 C11.6287142,23.7921112 9.67920949,24.4766192 7.67202444,24.474563 C7.31743399,24.4738709 6.96318842,24.452044 6.61111111,24.4091947 C8.64920812,25.7388882 11.020647,26.4441944 13.4423156,26.440911" id="Path" fill="#464646" fill-rule="nonzero"></path>
            </g>
        </g>
    </g>
</svg>