<svg width="24" height="17" viewBox="0 0 24 17" fill="none" xmlns="http://www.w3.org/2000/svg">
<path d="M19.9385 0H4.06154C2.98435 0 1.95128 0.437816 1.1896 1.21713C0.427911 1.99645 0 3.05343 0 4.15556V12.8444C0 13.9466 0.427911 15.0035 1.1896 15.7829C1.95128 16.5622 2.98435 17 4.06154 17H19.9385C21.0156 17 22.0487 16.5622 22.8104 15.7829C23.5721 15.0035 24 13.9466 24 12.8444V4.15556C24 3.05343 23.5721 1.99645 22.8104 1.21713C22.0487 0.437816 21.0156 0 19.9385 0ZM16.7003 8.66622L9.50031 12.444C9.47228 12.4589 9.44099 12.4661 9.40944 12.4651C9.37788 12.464 9.34712 12.4547 9.32008 12.4381C9.29304 12.4214 9.27063 12.3979 9.255 12.3698C9.23936 12.3418 9.23102 12.3101 9.23077 12.2778V4.72222C9.23102 4.68992 9.23936 4.65823 9.255 4.63017C9.27063 4.6021 9.29304 4.57861 9.32008 4.56194C9.34712 4.54526 9.37788 4.53596 9.40944 4.53492C9.44099 4.53388 9.47228 4.54114 9.50031 4.556L16.7003 8.33378C16.7305 8.34963 16.7559 8.37371 16.7736 8.40337C16.7914 8.43303 16.8007 8.46713 16.8007 8.50189C16.8007 8.53665 16.7914 8.57074 16.7736 8.60041C16.7559 8.63007 16.7305 8.65415 16.7003 8.67V8.66622Z" fill="#464646"/>
</svg>
